<?xml version="1.0" encoding="UTF-8"?>
<svg id="Layer_1" xmlns="http://www.w3.org/2000/svg" viewBox="0 0 187 34"><defs><style>.cls-1{fill:none;}.cls-2{fill:#e95420;}.cls-3{fill:#fff;}</style></defs><g><path d="M32.53,29.47c-.93,0-1.8-.17-2.6-.5-.8-.33-1.5-.82-2.09-1.46s-1.06-1.43-1.4-2.37c-.34-.94-.51-2.02-.51-3.23s.18-2.29,.55-3.23c.37-.94,.86-1.73,1.47-2.37,.61-.64,1.32-1.12,2.13-1.45s1.65-.49,2.53-.49c.54,0,1.04,.04,1.48,.1,.45,.07,.83,.16,1.17,.26,.33,.1,.62,.21,.86,.31,.24,.1,.42,.2,.54,.28l-.46,1.23c-.35-.21-.79-.41-1.33-.62s-1.2-.3-2-.3c-.91,0-1.7,.15-2.37,.46-.68,.31-1.24,.74-1.7,1.29-.46,.56-.8,1.22-1.03,1.98-.23,.77-.34,1.62-.34,2.55s.12,1.83,.34,2.6c.23,.77,.57,1.43,1.01,1.97,.45,.54,.99,.96,1.64,1.25,.65,.29,1.39,.44,2.22,.44,.92,0,1.69-.09,2.31-.26,.62-.17,1.09-.35,1.41-.53l.4,1.21c-.1,.07-.26,.15-.5,.24-.24,.09-.54,.18-.9,.28-.36,.1-.78,.18-1.25,.24-.47,.06-1,.09-1.59,.09Z"/><path d="M42.56,18.11c.71,0,1.31,.1,1.81,.3s.89,.48,1.2,.83c.31,.36,.53,.78,.67,1.26,.14,.49,.21,1.02,.21,1.59v6.81c-.14,.04-.34,.09-.61,.14-.26,.05-.57,.1-.92,.16-.35,.06-.73,.1-1.16,.14-.42,.03-.86,.05-1.31,.05-.57,0-1.1-.06-1.58-.19-.48-.13-.9-.32-1.25-.6-.35-.27-.63-.62-.83-1.04-.2-.42-.3-.94-.3-1.56s.11-1.09,.33-1.5,.54-.76,.94-1.03c.4-.27,.88-.47,1.44-.59,.56-.13,1.16-.19,1.82-.19,.2,0,.4,.01,.62,.03,.22,.02,.42,.05,.63,.08,.2,.03,.38,.07,.52,.1,.15,.03,.25,.07,.3,.09v-.67c0-.38-.03-.74-.08-1.1-.06-.35-.18-.67-.37-.96-.19-.29-.45-.52-.79-.69-.34-.17-.79-.26-1.35-.26-.79,0-1.39,.06-1.78,.17-.39,.11-.67,.2-.86,.27l-.19-1.19c.24-.11,.6-.22,1.1-.31,.49-.1,1.09-.15,1.79-.15Zm.12,10.07c.53,0,.99-.02,1.39-.05,.4-.03,.73-.08,1.01-.14v-3.8c-.15-.07-.4-.14-.73-.22-.33-.08-.79-.12-1.38-.12-.33,0-.68,.02-1.04,.07s-.7,.15-1,.31c-.31,.16-.56,.38-.75,.66-.2,.28-.29,.65-.29,1.11,0,.4,.07,.75,.2,1.02,.13,.28,.32,.5,.56,.67,.24,.17,.54,.29,.88,.37,.34,.08,.73,.12,1.16,.12Z"/><path d="M49.76,18.74c.4-.11,.95-.24,1.63-.38,.68-.14,1.52-.21,2.51-.21,.82,0,1.51,.12,2.06,.36,.55,.24,.99,.57,1.32,1.01,.33,.44,.56,.96,.7,1.58,.14,.61,.21,1.29,.21,2.03v6.04h-1.36v-5.6c0-.77-.05-1.41-.16-1.94s-.28-.96-.52-1.29c-.24-.33-.56-.57-.96-.72-.4-.15-.89-.22-1.49-.22-.64,0-1.19,.04-1.66,.1-.47,.07-.77,.13-.91,.19v9.48h-1.36v-10.42Z"/><path d="M70.74,23.77c0,.85-.12,1.62-.37,2.32-.24,.7-.58,1.29-1.02,1.78s-.96,.87-1.56,1.14c-.6,.27-1.26,.41-1.98,.41s-1.39-.14-1.99-.41-1.12-.65-1.56-1.14-.78-1.08-1.02-1.78c-.24-.7-.37-1.47-.37-2.32s.12-1.62,.37-2.32c.24-.7,.58-1.29,1.02-1.79,.44-.49,.96-.88,1.56-1.15s1.26-.41,1.99-.41,1.38,.14,1.98,.41c.6,.27,1.12,.65,1.56,1.15,.44,.5,.78,1.09,1.02,1.79,.24,.7,.37,1.47,.37,2.32Zm-1.44,0c0-1.35-.31-2.43-.94-3.23s-1.48-1.2-2.55-1.2-1.92,.4-2.55,1.2-.94,1.88-.94,3.23,.31,2.42,.94,3.22c.63,.79,1.48,1.19,2.55,1.19s1.92-.4,2.55-1.19c.63-.79,.94-1.87,.94-3.22Z"/><path d="M73.56,18.74c.4-.11,.95-.24,1.63-.38,.68-.14,1.52-.21,2.51-.21,.82,0,1.51,.12,2.06,.36,.55,.24,.99,.57,1.32,1.01,.33,.44,.56,.96,.7,1.58,.14,.61,.21,1.29,.21,2.03v6.04h-1.36v-5.6c0-.77-.05-1.41-.16-1.94s-.28-.96-.52-1.29c-.24-.33-.56-.57-.96-.72-.4-.15-.89-.22-1.49-.22-.64,0-1.19,.04-1.66,.1-.47,.07-.77,.13-.91,.19v9.48h-1.36v-10.42Z"/><path d="M86.91,15.1c0,.32-.1,.57-.29,.76-.2,.19-.43,.28-.71,.28s-.52-.09-.71-.28c-.2-.19-.29-.44-.29-.76s.1-.58,.29-.76c.19-.19,.43-.28,.71-.28s.51,.09,.71,.28c.2,.19,.29,.44,.29,.76Zm-.31,14.06h-1.36v-10.8h1.36v10.8Z"/><path d="M94.48,29.39c-.84,0-1.57-.13-2.21-.4-.64-.26-1.17-.64-1.6-1.14s-.75-1.09-.97-1.78c-.22-.69-.33-1.45-.33-2.29s.12-1.62,.34-2.32c.23-.7,.56-1.29,.99-1.8s.95-.89,1.57-1.16c.61-.27,1.3-.41,2.07-.41,.58,0,1.13,.05,1.64,.15,.51,.1,.9,.22,1.18,.38l-.36,1.17c-.28-.14-.59-.25-.94-.33-.35-.08-.81-.12-1.4-.12-1.2,0-2.11,.39-2.73,1.16-.62,.77-.93,1.87-.93,3.29,0,.64,.07,1.23,.21,1.76,.14,.54,.37,1,.68,1.38,.31,.38,.72,.68,1.21,.9s1.1,.32,1.81,.32c.58,0,1.08-.07,1.47-.2,.4-.13,.69-.25,.87-.34l.29,1.17c-.25,.14-.64,.28-1.18,.41s-1.1,.2-1.68,.2Z"/><path d="M103.01,18.11c.71,0,1.31,.1,1.81,.3s.89,.48,1.2,.83c.31,.36,.53,.78,.67,1.26,.14,.49,.21,1.02,.21,1.59v6.81c-.14,.04-.34,.09-.61,.14-.26,.05-.57,.1-.92,.16-.35,.06-.73,.1-1.16,.14-.42,.03-.86,.05-1.31,.05-.57,0-1.1-.06-1.58-.19-.48-.13-.9-.32-1.25-.6-.35-.27-.63-.62-.83-1.04-.2-.42-.3-.94-.3-1.56s.11-1.09,.33-1.5,.54-.76,.94-1.03c.4-.27,.88-.47,1.44-.59,.56-.13,1.16-.19,1.82-.19,.2,0,.4,.01,.62,.03,.22,.02,.42,.05,.63,.08,.2,.03,.38,.07,.52,.1,.15,.03,.25,.07,.3,.09v-.67c0-.38-.03-.74-.08-1.1-.06-.35-.18-.67-.37-.96-.19-.29-.45-.52-.79-.69-.34-.17-.79-.26-1.35-.26-.79,0-1.39,.06-1.78,.17-.39,.11-.67,.2-.86,.27l-.19-1.19c.24-.11,.6-.22,1.1-.31,.49-.1,1.09-.15,1.79-.15Zm.12,10.07c.53,0,.99-.02,1.39-.05,.4-.03,.73-.08,1.01-.14v-3.8c-.15-.07-.4-.14-.73-.22-.33-.08-.79-.12-1.38-.12-.33,0-.68,.02-1.04,.07s-.7,.15-1,.31c-.31,.16-.56,.38-.75,.66-.2,.28-.29,.65-.29,1.11,0,.4,.07,.75,.2,1.02,.13,.28,.32,.5,.56,.67,.24,.17,.54,.29,.88,.37,.34,.08,.73,.12,1.16,.12Z"/><path d="M112.92,29.35c-.46-.01-.86-.07-1.2-.18-.34-.1-.63-.26-.86-.48-.23-.22-.4-.49-.52-.84-.12-.34-.18-.77-.18-1.28V13.2l1.36-.25v13.58c0,.33,.03,.6,.09,.8,.06,.2,.16,.36,.28,.48,.12,.12,.29,.21,.49,.26s.44,.1,.72,.15l-.19,1.13Z"/><path d="M124.99,29.47c-.96,0-1.78-.15-2.46-.44-.68-.29-1.22-.7-1.64-1.21-.42-.51-.72-1.12-.91-1.81-.19-.69-.28-1.43-.28-2.22V14.68h1.42v8.92c0,.79,.09,1.48,.28,2.06,.19,.58,.45,1.05,.78,1.43,.33,.38,.74,.66,1.21,.84s1,.27,1.59,.27,1.11-.09,1.59-.27,.88-.46,1.21-.84,.59-.85,.78-1.43c.19-.58,.28-1.26,.28-2.06V14.68h1.42v9.11c0,.79-.09,1.54-.28,2.22-.19,.69-.49,1.29-.91,1.81-.42,.52-.96,.92-1.64,1.21-.68,.29-1.49,.44-2.45,.44Z"/><path d="M135.14,19.01c.24-.18,.62-.37,1.14-.57,.52-.2,1.14-.3,1.85-.3,.78,0,1.47,.14,2.08,.42s1.12,.67,1.54,1.17c.42,.5,.73,1.1,.95,1.79,.22,.69,.32,1.44,.32,2.27,0,.88-.13,1.67-.39,2.36-.26,.7-.62,1.29-1.09,1.78s-1.02,.86-1.67,1.12-1.37,.39-2.16,.39c-.96,0-1.75-.06-2.38-.19-.63-.12-1.14-.26-1.54-.4V13.2l1.36-.25v6.06Zm0,8.88c.21,.07,.52,.14,.93,.2,.41,.06,.95,.09,1.62,.09,1.17,0,2.11-.38,2.82-1.14s1.07-1.85,1.07-3.27c0-.6-.06-1.17-.19-1.7-.13-.54-.33-1-.61-1.4s-.64-.71-1.1-.95c-.45-.24-1.01-.36-1.68-.36-.32,0-.63,.03-.92,.09-.29,.06-.56,.14-.81,.24-.25,.1-.47,.2-.66,.31-.19,.11-.34,.22-.47,.31v7.56Z"/><path d="M154.13,28.78c-.4,.11-.95,.24-1.63,.38-.68,.14-1.52,.21-2.51,.21-.81,0-1.48-.12-2.03-.36-.54-.24-.98-.57-1.32-1s-.57-.95-.72-1.57c-.15-.61-.22-1.29-.22-2.03v-6.06h1.36v5.62c0,.77,.05,1.41,.17,1.94,.11,.53,.29,.96,.54,1.28,.25,.33,.57,.56,.97,.71,.4,.15,.88,.22,1.45,.22,.64,0,1.2-.04,1.67-.1s.77-.13,.9-.19v-9.48h1.36v10.42Z"/><path d="M157.51,18.74c.4-.11,.95-.24,1.63-.38,.68-.14,1.52-.21,2.51-.21,.82,0,1.51,.12,2.06,.36,.55,.24,.99,.57,1.32,1.01,.33,.44,.56,.96,.7,1.58,.14,.61,.21,1.29,.21,2.03v6.04h-1.36v-5.6c0-.77-.05-1.41-.16-1.94s-.28-.96-.52-1.29c-.24-.33-.56-.57-.96-.72-.4-.15-.89-.22-1.49-.22-.64,0-1.19,.04-1.66,.1-.47,.07-.77,.13-.91,.19v9.48h-1.36v-10.42Z"/><path d="M170.49,18.36h4.3v1.15h-4.3v5.74c0,.61,.05,1.11,.16,1.49,.1,.38,.25,.68,.45,.89,.19,.21,.43,.35,.71,.42,.28,.07,.58,.1,.92,.1,.57,0,1.03-.07,1.38-.2,.35-.13,.62-.25,.81-.37l.33,1.13c-.2,.12-.54,.27-1.02,.43-.49,.16-1.02,.24-1.59,.24-.67,0-1.23-.09-1.68-.26-.45-.17-.82-.44-1.09-.79s-.46-.8-.57-1.33-.17-1.16-.17-1.88V15.19l1.36-.25v3.43Z"/><path d="M185.48,28.78c-.4,.11-.95,.24-1.63,.38-.68,.14-1.52,.21-2.51,.21-.81,0-1.48-.12-2.03-.36-.54-.24-.98-.57-1.32-1s-.57-.95-.72-1.57c-.15-.61-.22-1.29-.22-2.03v-6.06h1.36v5.62c0,.77,.05,1.41,.17,1.94,.11,.53,.29,.96,.54,1.28,.25,.33,.57,.56,.97,.71,.4,.15,.88,.22,1.45,.22,.64,0,1.2-.04,1.67-.1s.77-.13,.9-.19v-9.48h1.36v10.42Z"/></g><g><rect class="cls-2" width="21" height="32"/><circle class="cls-3" cx="4.8" cy="21.15" r="2.17"/><circle class="cls-3" cx="13.86" cy="16.39" r="2.17"/><path class="cls-3" d="M9.7,26.75c-1.57-.34-2.87-1.34-3.61-2.75-.58,.26-1.23,.34-1.86,.23,.89,2.19,2.78,3.77,5.1,4.27,.51,.11,1.03,.16,1.54,.16-.4-.52-.62-1.16-.64-1.82-.18-.02-.36-.05-.53-.09Z"/><circle class="cls-3" cx="13.37" cy="26.76" r="2.17"/><path class="cls-3" d="M16.39,25.96c.68-.85,1.15-1.86,1.38-2.93,.4-1.87,.03-3.83-1.03-5.42-.25,.59-.68,1.09-1.22,1.43,.59,1.11,.77,2.38,.5,3.61-.13,.6-.36,1.17-.68,1.68,.51,.42,.87,.98,1.04,1.62Z"/><path class="cls-3" d="M4.63,18.04c.06,0,.11,0,.17,0,.22,0,.44,.02,.66,.07,.35,.08,.69,.21,.99,.4,.98-1.41,2.56-2.25,4.27-2.28,0-.16,.03-.33,.07-.49,.1-.47,.3-.9,.59-1.27-2.73-.22-5.39,1.19-6.74,3.58Z"/></g><rect class="cls-1" x="2.5" y="14" width="16" height="16"/></svg>